<?xml version="1.0" standalone="no"?>
<!DOCTYPE svg PUBLIC "-//W3C//DTD SVG 20010904//EN"
 "http://www.w3.org/TR/2001/REC-SVG-20010904/DTD/svg10.dtd">
<svg version="1.0" xmlns="http://www.w3.org/2000/svg"
 width="512.000000pt" height="512.000000pt" viewBox="0 0 512.000000 512.000000"
 preserveAspectRatio="xMidYMid meet">

<g transform="translate(0.000000,512.000000) scale(0.100000,-0.100000)"
fill="#000000" stroke="none">
<path d="M1506 4949 c-62 -15 -153 -68 -197 -116 -22 -24 -55 -74 -72 -111
l-32 -67 0 -1936 0 -1935 36 -75 c31 -63 37 -87 42 -162 9 -161 90 -282 235
-350 l67 -32 975 0 975 0 67 32 c92 43 151 101 194 188 31 62 37 86 41 162 5
75 11 99 42 162 l36 75 0 1936 0 1936 -37 76 c-45 91 -103 147 -196 191 l-67
32 -1035 2 c-604 1 -1051 -3 -1074 -8z m2088 -161 c55 -16 138 -99 154 -154
17 -58 17 -730 0 -788 -16 -55 -99 -138 -154 -154 -60 -17 -2008 -17 -2068 0
-55 16 -138 99 -154 154 -8 29 -12 146 -12 394 0 248 4 365 12 394 15 51 99
137 148 153 53 16 2018 17 2074 1z m-1034 -1263 l1056 0 72 36 72 35 0 -1374
c0 -1050 -3 -1384 -12 -1416 -16 -55 -99 -138 -154 -154 -60 -17 -2008 -17
-2068 0 -55 16 -138 99 -154 154 -9 32 -12 366 -12 1416 l0 1374 72 -35 72
-36 1056 0z m0 -3045 c820 0 1015 3 1059 14 l53 13 -7 -26 c-14 -56 -88 -127
-154 -150 -48 -16 -1854 -16 -1902 0 -66 23 -140 94 -154 150 l-7 26 53 -13
c44 -11 239 -14 1059 -14z"/>
<path d="M2390 4634 c-220 -26 -352 -59 -475 -118 -203 -99 -279 -234 -209
-374 65 -131 273 -235 569 -283 106 -18 464 -18 570 0 213 35 403 108 497 190
58 52 98 129 98 191 0 171 -213 313 -565 375 -86 16 -409 28 -485 19z m475
-179 c109 -20 251 -66 311 -101 52 -31 104 -87 104 -114 0 -27 -52 -83 -104
-114 -61 -35 -202 -81 -316 -102 -133 -25 -467 -25 -600 0 -114 21 -255 67
-316 102 -52 31 -104 87 -104 114 0 27 52 83 104 114 87 51 261 98 446 120 76
9 388 -3 475 -19z"/>
<path d="M2466 3350 c-63 -16 -153 -70 -197 -117 -22 -24 -55 -74 -72 -111
-29 -61 -32 -76 -32 -163 0 -90 2 -99 37 -171 45 -91 103 -147 196 -191 61
-29 76 -32 162 -32 86 0 101 3 162 32 93 44 151 100 196 191 35 72 37 81 37
172 0 91 -2 100 -37 172 -68 136 -188 217 -336 224 -42 2 -94 -1 -116 -6z
m168 -162 c86 -26 166 -136 166 -228 0 -124 -116 -240 -240 -240 -124 0 -240
116 -240 240 0 63 23 114 75 165 70 71 145 90 239 63z"/>
<path d="M1520 2160 l0 -80 80 0 80 0 0 80 0 80 -80 0 -80 0 0 -80z"/>
<path d="M1840 2160 l0 -80 80 0 80 0 0 80 0 80 -80 0 -80 0 0 -80z"/>
<path d="M2160 2160 l0 -80 80 0 80 0 0 80 0 80 -80 0 -80 0 0 -80z"/>
<path d="M2480 2160 l0 -80 80 0 80 0 0 80 0 80 -80 0 -80 0 0 -80z"/>
<path d="M2800 2160 l0 -80 80 0 80 0 0 80 0 80 -80 0 -80 0 0 -80z"/>
<path d="M3120 2160 l0 -80 80 0 80 0 0 80 0 80 -80 0 -80 0 0 -80z"/>
<path d="M3440 2160 l0 -80 80 0 80 0 0 80 0 80 -80 0 -80 0 0 -80z"/>
<path d="M1520 1840 l0 -80 80 0 80 0 0 80 0 80 -80 0 -80 0 0 -80z"/>
<path d="M1840 1840 l0 -80 80 0 80 0 0 80 0 80 -80 0 -80 0 0 -80z"/>
<path d="M2160 1840 l0 -80 80 0 80 0 0 80 0 80 -80 0 -80 0 0 -80z"/>
<path d="M2480 1840 l0 -80 80 0 80 0 0 80 0 80 -80 0 -80 0 0 -80z"/>
<path d="M2800 1840 l0 -80 80 0 80 0 0 80 0 80 -80 0 -80 0 0 -80z"/>
<path d="M3120 1840 l0 -80 80 0 80 0 0 80 0 80 -80 0 -80 0 0 -80z"/>
<path d="M3440 1840 l0 -80 80 0 80 0 0 80 0 80 -80 0 -80 0 0 -80z"/>
<path d="M1520 1520 l0 -80 80 0 80 0 0 80 0 80 -80 0 -80 0 0 -80z"/>
<path d="M1840 1520 l0 -80 80 0 80 0 0 80 0 80 -80 0 -80 0 0 -80z"/>
<path d="M2160 1520 l0 -80 80 0 80 0 0 80 0 80 -80 0 -80 0 0 -80z"/>
<path d="M2480 1520 l0 -80 80 0 80 0 0 80 0 80 -80 0 -80 0 0 -80z"/>
<path d="M2800 1520 l0 -80 80 0 80 0 0 80 0 80 -80 0 -80 0 0 -80z"/>
<path d="M3120 1520 l0 -80 80 0 80 0 0 80 0 80 -80 0 -80 0 0 -80z"/>
<path d="M3440 1520 l0 -80 80 0 80 0 0 80 0 80 -80 0 -80 0 0 -80z"/>
<path d="M1520 1200 l0 -80 80 0 80 0 0 80 0 80 -80 0 -80 0 0 -80z"/>
<path d="M1840 1200 l0 -80 80 0 80 0 0 80 0 80 -80 0 -80 0 0 -80z"/>
<path d="M2160 1200 l0 -80 80 0 80 0 0 80 0 80 -80 0 -80 0 0 -80z"/>
<path d="M2480 1200 l0 -80 80 0 80 0 0 80 0 80 -80 0 -80 0 0 -80z"/>
<path d="M2800 1200 l0 -80 80 0 80 0 0 80 0 80 -80 0 -80 0 0 -80z"/>
<path d="M3120 1200 l0 -80 80 0 80 0 0 80 0 80 -80 0 -80 0 0 -80z"/>
<path d="M3440 1200 l0 -80 80 0 80 0 0 80 0 80 -80 0 -80 0 0 -80z"/>
<path d="M1520 880 l0 -80 80 0 80 0 0 80 0 80 -80 0 -80 0 0 -80z"/>
<path d="M1840 880 l0 -80 80 0 80 0 0 80 0 80 -80 0 -80 0 0 -80z"/>
<path d="M2160 880 l0 -80 80 0 80 0 0 80 0 80 -80 0 -80 0 0 -80z"/>
<path d="M2480 880 l0 -80 80 0 80 0 0 80 0 80 -80 0 -80 0 0 -80z"/>
<path d="M2800 880 l0 -80 80 0 80 0 0 80 0 80 -80 0 -80 0 0 -80z"/>
<path d="M3120 880 l0 -80 80 0 80 0 0 80 0 80 -80 0 -80 0 0 -80z"/>
<path d="M3440 880 l0 -80 80 0 80 0 0 80 0 80 -80 0 -80 0 0 -80z"/>
<path d="M244 2403 c-33 -24 -60 -48 -62 -52 -4 -11 101 -121 114 -121 12 0
100 106 97 116 -1 3 -22 27 -46 53 l-45 48 -58 -44z"/>
<path d="M4768 2395 l-47 -51 46 -57 c26 -31 52 -57 59 -57 12 0 114 108 114
120 0 6 -19 21 -95 75 l-30 21 -47 -51z"/>
<path d="M512 2185 c-18 -36 -32 -69 -32 -74 0 -8 114 -55 162 -66 29 -7 25
-14 64 126 3 12 -14 23 -73 45 -43 16 -80 30 -83 32 -3 1 -20 -27 -38 -63z"/>
<path d="M4487 2217 c-58 -23 -76 -34 -73 -46 31 -114 38 -131 51 -131 14 0
166 57 174 66 6 6 -61 144 -68 143 -3 -1 -41 -15 -84 -32z"/>
<path d="M880 2080 l0 -80 80 0 80 0 0 80 0 80 -80 0 -80 0 0 -80z"/>
<path d="M4080 2080 l0 -80 80 0 80 0 0 80 0 80 -80 0 -80 0 0 -80z"/>
<path d="M254 1826 c-8 -25 -24 -102 -24 -123 0 -18 8 -23 53 -32 108 -21 100
-25 114 58 7 41 10 77 8 79 -3 3 -37 10 -76 17 -51 9 -72 9 -75 1z"/>
<path d="M4786 1824 c-38 -7 -70 -15 -72 -17 -2 -1 2 -37 9 -78 14 -83 6 -79
115 -58 41 8 52 15 52 29 0 28 -21 124 -29 131 -3 3 -37 0 -75 -7z"/>
<path d="M566 1772 c-2 -10 -8 -45 -11 -79 l-7 -62 34 -5 c18 -3 54 -7 80 -9
44 -4 46 -3 52 26 3 16 6 51 6 78 0 47 -1 48 -32 53 -96 15 -117 14 -122 -2z"/>
<path d="M4500 1783 c-101 -10 -100 -9 -100 -62 0 -27 3 -62 6 -78 6 -29 8
-30 52 -26 26 2 62 6 80 9 l34 5 -7 62 c-8 72 -14 98 -23 95 -4 0 -23 -3 -42
-5z"/>
<path d="M880 1680 l0 -80 80 0 80 0 0 80 0 80 -80 0 -80 0 0 -80z"/>
<path d="M4080 1680 l0 -80 80 0 80 0 0 80 0 80 -80 0 -80 0 0 -80z"/>
<path d="M880 1280 l0 -80 80 0 80 0 0 80 0 80 -80 0 -80 0 0 -80z"/>
<path d="M4080 1280 l0 -80 80 0 80 0 0 80 0 80 -80 0 -80 0 0 -80z"/>
<path d="M655 1343 c-22 -2 -55 -6 -73 -9 l-34 -5 7 -62 c10 -96 10 -96 58
-90 112 12 107 9 107 62 0 56 -10 112 -19 109 -3 -1 -24 -3 -46 -5z"/>
<path d="M4406 1317 c-3 -16 -6 -51 -6 -78 0 -53 -5 -50 107 -62 48 -6 48 -6
58 90 l7 62 -34 5 c-18 3 -54 7 -80 9 -44 4 -46 3 -52 -26z"/>
<path d="M306 1294 c-38 -7 -71 -15 -73 -18 -5 -5 15 -134 22 -147 4 -6 141
14 150 23 6 5 -16 141 -24 149 -3 3 -37 0 -75 -7z"/>
<path d="M4735 1296 c-7 -23 -25 -140 -21 -143 7 -8 147 -30 150 -24 7 13 28
142 24 147 -3 2 -38 11 -77 18 -54 10 -73 11 -76 2z"/>
<path d="M880 880 l0 -80 80 0 80 0 0 80 0 80 -80 0 -80 0 0 -80z"/>
<path d="M4080 880 l0 -80 80 0 80 0 0 80 0 80 -80 0 -80 0 0 -80z"/>
<path d="M590 899 c-30 -11 -67 -25 -82 -31 -16 -5 -28 -14 -28 -19 0 -14 64
-139 70 -137 3 2 40 16 83 32 59 22 76 33 73 45 -30 109 -38 131 -49 131 -7
-1 -37 -10 -67 -21z"/>
<path d="M4434 863 c-8 -32 -18 -65 -20 -74 -3 -12 12 -22 63 -41 38 -14 75
-28 83 -32 12 -5 24 10 50 64 18 38 32 72 29 74 -8 9 -160 66 -174 66 -9 0
-20 -21 -31 -57z"/>
<path d="M232 674 c-29 -31 -51 -60 -50 -65 2 -4 29 -28 62 -52 l58 -44 47 50
c25 27 46 52 45 54 -3 14 -88 113 -98 113 -5 0 -34 -25 -64 -56z"/>
<path d="M4770 676 c-24 -29 -42 -58 -40 -62 1 -5 21 -30 45 -55 l43 -46 58
44 c33 24 60 47 62 51 4 12 -98 122 -112 122 -7 0 -32 -24 -56 -54z"/>
</g>
</svg>
